# xmcd
#
# Track frame offsets: 
#        150
#        12592
#        24040
#        34948
#        37526
#        49650
#        62109
#        73095
#        84187
#        95861
#        107586
#        119587
#        130695
#        141472
#        152613
#        165719
#        177375
#        189121
#        203203
#        215690
#        227043
#        238885
#        250153
#        262174
#        274249
#        281331
#        290219
#        296860
#        305113
#        312868
#        320000
#        327851
#        333056
#        339420
#        346625
#
# Disc length: 4701 seconds
#
# Revision: 1
# Processed by: cddbd v1.5.2PL0 Copyright (c) Steve Scherf et al.
# Submitted via: ExactAudioCopyFreeDBPlugin 1.0
#
DISCID=13125b23
DTITLE=Jim Reeves - Welcome To My World - CD 02
DYEAR=2001
DGENRE=Country
TTITLE0=I'll Follow You
TTITLE1=Penny Candy
TTITLE2=Where Does A Broken Heart Go
TTITLE3=The Wilder Your Heart Beats (False Start)
TTITLE4=The Wilder Your Heart Beats
TTITLE5=Drinking Tequila
TTITLE6=Red Eyed And Rowdy
TTITLE7=Tahiti
TTITLE8=Give Me One More Kiss
TTITLE9=Are You The One (& Alvadean Coker)
TTITLE10=How Many
TTITLE11=Hillbilly Waltz
TTITLE12=Let Me Remember (Things I Can't Forget)
TTITLE13=Spanish Violins
TTITLE14=A Woman's Love
TTITLE15=Whispering Willow
TTITLE16=If You Love Me Don't Leave Me
TTITLE17=Each Beat Of My Heart
TTITLE18=Heart Breaking Baby
TTITLE19=Let Me Love You Just A Little (Alt.)
TTITLE20=Then I'll Stop Loving You (Alt.)
TTITLE21=Hillbilly Waltz (Alt.)
TTITLE22=Mexican Joe (Alt.)
TTITLE23=The Marriage Of Mexican Joe (& Carolyn Bradshaw)
TTITLE24=You're The Sweetest Thing
TTITLE25=I've Forgotten You
TTITLE26=Sand In My Shoes
TTITLE27=There's Someone Who Loves You
TTITLE28=Heartbreaking Baby
TTITLE29=Did You Darling
TTITLE30=Standby
TTITLE31=I'll Always Love You
TTITLE32=Never Take No For An Answer
TTITLE33=Please Leave My Darling Alone
TTITLE34=You're Slipping Away From Me
EXTD=
EXTT0=
EXTT1=
EXTT2=
EXTT3=
EXTT4=
EXTT5=
EXTT6=
EXTT7=
EXTT8=
EXTT9=
EXTT10=
EXTT11=
EXTT12=
EXTT13=
EXTT14=
EXTT15=
EXTT16=
EXTT17=
EXTT18=
EXTT19=
EXTT20=
EXTT21=
EXTT22=
EXTT23=
EXTT24=
EXTT25=
EXTT26=
EXTT27=
EXTT28=
EXTT29=
EXTT30=
EXTT31=
EXTT32=
EXTT33=
EXTT34=
PLAYORDER=
